<svg xmlns="http://www.w3.org/2000/svg" viewBox="0 0 900 600">
  <rect width="900" height="600" fill="#b22234"/>
  <g fill="#fff">
    <rect y="46.15" width="900" height="46.15"/>
    <rect y="138.46" width="900" height="46.15"/>
    <rect y="230.77" width="900" height="46.15"/>
    <rect y="323.08" width="900" height="46.15"/>
    <rect y="415.38" width="900" height="46.15"/>
    <rect y="507.69" width="900" height="46.15"/>
  </g>
  <rect width="360" height="323.08" fill="#3c3b6e"/>
  <g fill="#fff">
    <circle cx="45" cy="40" r="12"/>
    <circle cx="90" cy="40" r="12"/>
    <circle cx="135" cy="40" r="12"/>
    <circle cx="180" cy="40" r="12"/>
    <circle cx="225" cy="40" r="12"/>
    <circle cx="270" cy="40" r="12"/>
    <circle cx="315" cy="40" r="12"/>
    <circle cx="67.5" cy="80" r="12"/>
    <circle cx="112.5" cy="80" r="12"/>
    <circle cx="157.5" cy="80" r="12"/>
    <circle cx="202.5" cy="80" r="12"/>
    <circle cx="247.5" cy="80" r="12"/>
    <circle cx="292.5" cy="80" r="12"/>
    <circle cx="45" cy="120" r="12"/>
    <circle cx="90" cy="120" r="12"/>
    <circle cx="135" cy="120" r="12"/>
    <circle cx="180" cy="120" r="12"/>
    <circle cx="225" cy="120" r="12"/>
    <circle cx="270" cy="120" r="12"/>
    <circle cx="315" cy="120" r="12"/>
    <circle cx="67.5" cy="160" r="12"/>
    <circle cx="112.5" cy="160" r="12"/>
    <circle cx="157.5" cy="160" r="12"/>
    <circle cx="202.5" cy="160" r="12"/>
    <circle cx="247.5" cy="160" r="12"/>
    <circle cx="292.5" cy="160" r="12"/>
    <circle cx="45" cy="200" r="12"/>
    <circle cx="90" cy="200" r="12"/>
    <circle cx="135" cy="200" r="12"/>
    <circle cx="180" cy="200" r="12"/>
    <circle cx="225" cy="200" r="12"/>
    <circle cx="270" cy="200" r="12"/>
    <circle cx="315" cy="200" r="12"/>
    <circle cx="67.5" cy="240" r="12"/>
    <circle cx="112.5" cy="240" r="12"/>
    <circle cx="157.5" cy="240" r="12"/>
    <circle cx="202.5" cy="240" r="12"/>
    <circle cx="247.5" cy="240" r="12"/>
    <circle cx="292.5" cy="240" r="12"/>
    <circle cx="45" cy="280" r="12"/>
    <circle cx="90" cy="280" r="12"/>
    <circle cx="135" cy="280" r="12"/>
    <circle cx="180" cy="280" r="12"/>
    <circle cx="225" cy="280" r="12"/>
    <circle cx="270" cy="280" r="12"/>
    <circle cx="315" cy="280" r="12"/>
  </g>
</svg>
